<?xml version="1.0" encoding="utf-8"?>
<!-- Generator: Adobe Illustrator 16.0.1, SVG Export Plug-In . SVG Version: 6.00 Build 0)  -->
<!DOCTYPE svg PUBLIC "-//W3C//DTD SVG 1.1//EN" "http://www.w3.org/Graphics/SVG/1.1/DTD/svg11.dtd">
<svg version="1.1" id="Layer_1" xmlns="http://www.w3.org/2000/svg" xmlns:xlink="http://www.w3.org/1999/xlink" x="0px" y="0px"
	 width="511.97px" height="242.581px" viewBox="0 0 511.97 242.581" enable-background="new 0 0 511.97 242.581"
	 xml:space="preserve">
<rect x="-35.813" y="-428.395" display="none" fill="#4F4563" width="550.389" height="978.096"/>
<linearGradient id="SVGID_1_" gradientUnits="userSpaceOnUse" x1="351.9072" y1="97.8755" x2="511.9697" y2="97.8755">
	<stop  offset="0" style="stop-color:#FFFFFF"/>
	<stop  offset="1" style="stop-color:#000000;stop-opacity:0"/>
</linearGradient>
<polygon opacity="0.5" fill="url(#SVGID_1_)" points="357.15,31.181 511.97,23.673 469.296,172.079 351.907,38.671 "/>
<linearGradient id="SVGID_2_" gradientUnits="userSpaceOnUse" x1="0" y1="148.0815" x2="160.061" y2="148.0815">
	<stop  offset="0" style="stop-color:#000000;stop-opacity:0"/>
	<stop  offset="1" style="stop-color:#F11E0F;stop-opacity:0.9663"/>
</linearGradient>
<polygon opacity="0.5" fill="url(#SVGID_2_)" points="154.819,81.387 0,73.879 42.673,222.284 160.061,88.877 "/>
<path display="none" fill="#CEA06E" d="M357.619,80.263c-43.854,0-79.405,35.551-79.405,79.405
	c0,43.854,35.552,79.404,79.405,79.404c43.854,0,79.403-35.551,79.403-79.404C437.022,115.814,401.474,80.263,357.619,80.263z
	 M357.06,233.41c-40.762,0-73.805-33.044-73.805-73.804c0-40.761,33.043-73.805,73.805-73.805c40.76,0,73.803,33.044,73.803,73.805
	C430.862,200.366,397.819,233.41,357.06,233.41z"/>
<path display="none" fill="#1C1C1C" d="M357.619,76.754c-45.792,0-82.913,37.121-82.913,82.914
	c0,45.791,37.121,82.912,82.913,82.912s82.913-37.121,82.913-82.912C440.532,113.875,403.411,76.754,357.619,76.754z
	 M357.034,236.668c-42.562,0-77.064-34.503-77.064-77.064c0-42.562,34.503-77.066,77.064-77.066
	c42.562,0,77.064,34.504,77.064,77.066C434.099,202.166,399.597,236.668,357.034,236.668z"/>
<path display="none" fill="#C2C2C4" d="M357.034,84.357c-41.701,0-75.506,33.806-75.506,75.506s33.805,75.505,75.506,75.505
	s75.505-33.805,75.505-75.505S398.735,84.357,357.034,84.357z M357.034,228.493c-37.903,0-68.63-30.727-68.63-68.63
	s30.727-68.63,68.63-68.63c37.902,0,68.629,30.727,68.629,68.63S394.937,228.493,357.034,228.493z"/>
<path display="none" fill="#CEA06E" d="M117.196,80.263c-43.854,0-79.405,35.551-79.405,79.405
	c0,43.854,35.551,79.404,79.405,79.404c43.854,0,79.404-35.551,79.404-79.404C196.6,115.814,161.049,80.263,117.196,80.263z
	 M116.635,233.41c-40.76,0-73.804-33.044-73.804-73.804c0-40.761,33.043-73.805,73.804-73.805c40.761,0,73.804,33.044,73.804,73.805
	C190.439,200.366,157.396,233.41,116.635,233.41z"/>
<path display="none" fill="#1C1C1C" d="M117.196,76.754c-45.792,0-82.914,37.121-82.914,82.914
	c0,45.791,37.122,82.912,82.914,82.912c45.791,0,82.913-37.121,82.913-82.912C200.108,113.875,162.987,76.754,117.196,76.754z
	 M116.611,236.668c-42.562,0-77.065-34.503-77.065-77.064c0-42.562,34.503-77.066,77.065-77.066
	c42.562,0,77.065,34.504,77.065,77.066C193.676,202.166,159.172,236.668,116.611,236.668z"/>
<path display="none" fill="#C2C2C4" d="M116.611,84.357c-41.701,0-75.506,33.806-75.506,75.506s33.805,75.505,75.506,75.505
	c41.7,0,75.505-33.805,75.505-75.505S158.311,84.357,116.611,84.357z M116.611,228.493c-37.903,0-68.63-30.727-68.63-68.63
	s30.727-68.63,68.63-68.63c37.903,0,68.63,30.727,68.63,68.63S154.514,228.493,116.611,228.493z"/>
<line display="none" fill="none" stroke="#353535" stroke-width="4" stroke-miterlimit="10" x1="367.278" y1="91.993" x2="356.709" y2="155.25"/>
<line display="none" fill="none" stroke="#353535" stroke-width="4" stroke-miterlimit="10" x1="387.968" y1="98.584" x2="359.048" y2="155.756"/>
<line display="none" fill="none" stroke="#353535" stroke-width="4" stroke-miterlimit="10" x1="405.431" y1="111.204" x2="359.866" y2="156.34"/>
<line display="none" fill="none" stroke="#353535" stroke-width="4" stroke-miterlimit="10" x1="361.648" y1="158.153" x2="418.286" y2="128.877"/>
<line display="none" fill="none" stroke="#353535" stroke-width="4" stroke-miterlimit="10" x1="424.874" y1="149.417" x2="360.737" y2="158.932"/>
<line display="none" fill="none" stroke="#353535" stroke-width="4" stroke-miterlimit="10" x1="424.81" y1="170.711" x2="361.993" y2="161.227"/>
<line display="none" fill="none" stroke="#353535" stroke-width="4" stroke-miterlimit="10" x1="362.195" y1="162.266" x2="418.286" y2="190.847"/>
<line display="none" fill="none" stroke="#353535" stroke-width="4" stroke-miterlimit="10" x1="360.737" y1="164.867" x2="405.431" y2="208.522"/>
<line display="none" fill="none" stroke="#353535" stroke-width="4" stroke-miterlimit="10" x1="359.866" y1="165.591" x2="387.968" y2="221.141"/>
<line display="none" fill="none" stroke="#353535" stroke-width="4" stroke-miterlimit="10" x1="357.619" y1="166.481" x2="368.148" y2="227.596"/>
<line display="none" fill="none" stroke="#353535" stroke-width="4" stroke-miterlimit="10" x1="355.539" y1="166.166" x2="345.919" y2="227.596"/>
<line display="none" fill="none" stroke="#353535" stroke-width="4" stroke-miterlimit="10" x1="325.556" y1="220.862" x2="354.331" y2="165.591"/>
<line display="none" fill="none" stroke="#353535" stroke-width="4" stroke-miterlimit="10" x1="308.085" y1="207.966" x2="351.907" y2="163.886"/>
<line display="none" fill="none" stroke="#353535" stroke-width="4" stroke-miterlimit="10" x1="295.782" y1="190.847" x2="351.622" y2="163.372"/>
<line display="none" fill="none" stroke="#353535" stroke-width="4" stroke-miterlimit="10" x1="289.258" y1="170.711" x2="352.128" y2="160.448"/>
<line display="none" fill="none" stroke="#353535" stroke-width="4" stroke-miterlimit="10" x1="289.194" y1="149.417" x2="351.713" y2="159.863"/>
<line display="none" fill="none" stroke="#353535" stroke-width="4" stroke-miterlimit="10" x1="295.546" y1="129.346" x2="352.786" y2="157.315"/>
<line display="none" fill="none" stroke="#353535" stroke-width="4" stroke-miterlimit="10" x1="355.475" y1="156.053" x2="324.489" y2="99.683"/>
<line display="none" fill="none" stroke="#353535" stroke-width="4" stroke-miterlimit="10" x1="345.286" y1="92.235" x2="356.124" y2="156.125"/>
<line display="none" fill="none" stroke="#353535" stroke-width="4" stroke-miterlimit="10" x1="307.923" y1="111.922" x2="353.136" y2="157.12"/>
<circle fill="#A7A8AF" cx="356.709" cy="160.903" r="5.653"/>
<line display="none" fill="none" stroke="#353535" stroke-width="4" stroke-miterlimit="10" x1="126.854" y1="91.993" x2="116.286" y2="155.25"/>
<line display="none" fill="none" stroke="#353535" stroke-width="4" stroke-miterlimit="10" x1="147.544" y1="98.584" x2="118.625" y2="155.756"/>
<line display="none" fill="none" stroke="#353535" stroke-width="4" stroke-miterlimit="10" x1="165.007" y1="111.204" x2="119.443" y2="156.34"/>
<line display="none" fill="none" stroke="#353535" stroke-width="4" stroke-miterlimit="10" x1="121.225" y1="158.153" x2="177.863" y2="128.877"/>
<line display="none" fill="none" stroke="#353535" stroke-width="4" stroke-miterlimit="10" x1="184.451" y1="149.417" x2="120.314" y2="158.932"/>
<line display="none" fill="none" stroke="#353535" stroke-width="4" stroke-miterlimit="10" x1="184.387" y1="170.711" x2="121.57" y2="161.227"/>
<line display="none" fill="none" stroke="#353535" stroke-width="4" stroke-miterlimit="10" x1="121.772" y1="162.266" x2="177.863" y2="190.847"/>
<line display="none" fill="none" stroke="#353535" stroke-width="4" stroke-miterlimit="10" x1="120.314" y1="164.867" x2="165.007" y2="208.522"/>
<line display="none" fill="none" stroke="#353535" stroke-width="4" stroke-miterlimit="10" x1="119.443" y1="165.591" x2="147.544" y2="221.141"/>
<line display="none" fill="none" stroke="#353535" stroke-width="4" stroke-miterlimit="10" x1="117.196" y1="166.481" x2="127.726" y2="227.596"/>
<line display="none" fill="none" stroke="#353535" stroke-width="4" stroke-miterlimit="10" x1="115.116" y1="166.166" x2="105.495" y2="227.596"/>
<line display="none" fill="none" stroke="#353535" stroke-width="4" stroke-miterlimit="10" x1="85.132" y1="220.862" x2="113.907" y2="165.591"/>
<line display="none" fill="none" stroke="#353535" stroke-width="4" stroke-miterlimit="10" x1="67.662" y1="207.966" x2="111.484" y2="163.886"/>
<line display="none" fill="none" stroke="#353535" stroke-width="4" stroke-miterlimit="10" x1="55.358" y1="190.847" x2="111.199" y2="163.372"/>
<line display="none" fill="none" stroke="#353535" stroke-width="4" stroke-miterlimit="10" x1="48.834" y1="170.711" x2="111.704" y2="160.448"/>
<line display="none" fill="none" stroke="#353535" stroke-width="4" stroke-miterlimit="10" x1="48.771" y1="149.417" x2="111.29" y2="159.863"/>
<line display="none" fill="none" stroke="#353535" stroke-width="4" stroke-miterlimit="10" x1="55.122" y1="129.346" x2="112.362" y2="157.315"/>
<line display="none" fill="none" stroke="#353535" stroke-width="4" stroke-miterlimit="10" x1="115.051" y1="156.053" x2="84.065" y2="99.683"/>
<line display="none" fill="none" stroke="#353535" stroke-width="4" stroke-miterlimit="10" x1="104.863" y1="92.235" x2="115.7" y2="156.125"/>
<line display="none" fill="none" stroke="#353535" stroke-width="4" stroke-miterlimit="10" x1="67.5" y1="111.922" x2="112.711" y2="157.12"/>
<circle fill="#A7A8AF" cx="116.285" cy="160.903" r="5.653"/>
<path fill="#A0A0A0" d="M122.718,150.451c0,0,0.262,0.993,1.431,0.378c0,0,1.721-1.116,1.152,0.808
	c-0.567,1.923,0.635,1.153,1.057,1.165c0,0,1.67-0.703,0.656,1.051c0,0-0.429,1.234,0.643,1.039c0,0,2.242-0.649,0.877,0.975
	c0,0-0.744,1.17,0.44,1.268c0,0,2.541-0.131,0.66,1.656c0,0-0.827,1.008,0.693,1.301c0,0,2.332,0.584,0.318,1.916
	c0,0-1.885,0.748-0.39,1.462c0,0,1.56,0.845,0.032,1.364c0,0-1.787,0.357-0.325,1.365c0,0,1.357,1.104-0.329,1.039
	c0,0-1.296,0.26-0.874,1.463c0,0,0.91,1.656-0.877,1.039c0,0-1.228-0.098-0.793,1.299c0,0,0.533,1.756-1.189,0.863
	c0,0-1.202-0.44-1.007,1.022c0,0-0.455,1.526-1.397,0c0,0-1.17-1.431-1.852-0.065c0,0-0.812,1.258-1.234-0.541
	c0,0-0.78-1.246-1.722,1.126c0,0-0.91,1.007-1.137-1.3c0,0-0.65-1.057-1.332,1.047c0,0-4.906-0.332-6.888-2.412
	c0,0-3.195-1.526-3.839-7.473c0,0-0.383-7.57,2.866-9.551c0,0,3.572-4.938,8.819-4.841
	C117.179,148.914,122.229,148.772,122.718,150.451z"/>
<path fill="#6D6D6D" d="M141.303,89.295l-0.812,1.43c0,0-0.584,1.17,0.812,1.624c0,0,9.812,3.898,9.974,3.802
	c0,0,2.989-0.325,1.332-2.112c0,0-1.884-2.437-10.527-4.743C142.083,89.295,141.726,89.1,141.303,89.295z"/>
<path fill="#383838" d="M150.725,82.017v4.029l-1.3,3.509c0,0-4.159-0.13-5.718,3.769c0,0-0.259,3.411,3.087,2.209
	c0,0,6.693-4.646,6.953-5.166c0,0,0.78-0.909-0.845-1.3c0,0-0.812-0.356,0.13-1.363l0.617-0.684l1.527,0.78
	c0,0,0.715-1.526,2.404-0.032l1.625-2.6c0,0-2.08-2.339-5.263-2.924l-0.065-0.422C153.876,81.823,151.635,81.368,150.725,82.017z"/>
<path fill="none" stroke="#D3D3D3" stroke-width="4" stroke-miterlimit="10" d="M175.222,59.047c0,0-4.906-1.755-13.548,13.45"/>
<ellipse transform="matrix(0.7661 -0.6428 0.6428 0.7661 -25.2042 116.0477)" fill="#BABABA" cx="146.827" cy="92.65" rx="1.463" ry="1.307"/>
<path fill="#4C4C4C" d="M154.296,82.319c0,0,4.388-5.369,3.966-7.903c0,0-0.227-0.715,0.942-0.683c0,0,1.754-2.209,2.404-2.177
	c0,0,0.487,0.812,0.942,0.487c0,0-0.033,1.755-0.845,3.151c0,0,0.682,1.397-0.845,1.43c0,0-3.868,3.595-4.29,6.557
	C156.572,83.181,155.042,82.457,154.296,82.319z"/>
<path fill="#6D6D6D" d="M342.874,83.773l0.635,1.517c0,0,0.44,1.231-1.002,1.516c0,0-10.207,2.696-10.356,2.58
	c0,0-2.929-0.68-1.069-2.256c0,0,2.162-2.193,11.019-3.449C342.1,83.68,342.478,83.529,342.874,83.773z"/>
<path fill="#383838" d="M335.365,74.985l-0.862,3.936l0.519,3.706c0,0,4.09,0.763,4.778,4.905c0,0-0.476,3.389-3.488,1.498
	c0,0-5.542-5.971-5.686-6.535c0,0-0.566-1.055,1.104-1.088c0,0,0.87-0.176,0.165-1.361l-0.456-0.798l-1.659,0.435
	c0,0-0.37-1.645-2.342-0.547l-1.03-2.887c0,0,2.532-1.84,5.768-1.729l0.154-0.398C332.329,74.121,334.615,74.157,335.365,74.985z"/>
<ellipse transform="matrix(-0.6107 -0.7919 0.7919 -0.6107 474.3669 405.6315)" fill="#BABABA" cx="336.896" cy="86.206" rx="1.463" ry="1.306"/>
<path fill="#4C4C4C" d="M331.812,74.516c0,0-3.137-6.184-2.182-8.569c0,0,0.374-0.649-0.775-0.868c0,0-1.24-2.533-1.882-2.641
	c0,0-0.649,0.688-1.024,0.273c0,0-0.344,1.722,0.15,3.26c0,0-0.965,1.219,0.52,1.577c0,0,3.008,4.339,2.786,7.323
	C329.404,74.872,331.054,74.491,331.812,74.516z"/>
<path fill="none" stroke="#D3D3D3" stroke-width="4" stroke-miterlimit="10" d="M327.097,64.213c0,0-2.747-12.866-1.307-18.129
	c1.441-5.266,4.549-10.137,6.021-10.852c1.474-0.714,10.432-5.848,7.105,8.643c0,0-3.339,11.241-18.147,13.71"/>
<path fill="none" stroke="#D3D3D3" stroke-width="4" stroke-miterlimit="10" d="M351.251,53.004c0,0,1.17,17.057-27.097,18.129"/>
<path fill="#EFEFEF" d="M317.851,45.629l-9.097,2.599c0,0,0.261,2.729-1.3,2.859l-126.319,1.819c0,0-0.909,1.17-1.819-4.418
	l-7.408,2.47l2.729,9.227c0,0-0.52,1.169,0,1.949l-57.961,91.621c0,0-3.509,1.689-5.458,7.018c0,0,1.234,2.145,0.584,6.693
	l2.404,1.104l1.169-2.6c0,0,2.469,0,3.639-1.169l92.92,16.115c0,0,1.95,3.638,7.538,1.17l83.563-95.91l10.916-11.827
	c0,0,1.82-1.689,2.08,1.819l10.266-2.858L317.851,45.629z M122.523,157.263c0-1.039-2.339-2.21-2.339-2.21l56.272-85.771
	c1.128-1.721,1.429,0,1.429,0l33.659,102.537L122.523,157.263z M216.483,165.451L184.124,64.603c0,0,0-1.95,1.169-1.3l126.32-2.469
	L216.483,165.451z"/>
<path fill="#050505" d="M130.029,193.229c0,0,0.186,1.039,1.652,0.909c0,0,0.719-0.161,0.492,0.845c0,0-0.26,1.138,0.617,1.268
	c0,0,1.397,0.065,0.276,1.251c0,0-0.764,0.599-0.146,1.403c0,0,0.667,0.839-0.406,1.018c0,0-1.049-0.066-0.833,1.104
	c0,0,0.281,1.462-1.148,0.633c0,0-1.104-0.211-1.104,0.618c0,0-0.631,1.348-1.111,0.178c0,0-0.529-1.039-1.553-0.26
	c0,0-1.154,0.683-0.975-0.52c0,0,0.081-1.186-1.105-1.089c0,0-1.414,0.261-0.731-1.04c0,0,0.617-0.633-0.081-1.299
	c0,0-1.219-0.484-0.211-1.143c0,0,0.942-0.238,0.601-1.311c0,0-0.52-0.877,0.39-0.894c0,0,1.104,0.147,1.121-0.796
	c0,0-0.098-1.056,0.861-0.764c0,0,0.812,0.471,1.105-0.276c0,0,0.227-0.893,0.585,0c0.357,0.895,0.673,0.178,0.991-0.113
	C129.314,192.953,129.899,192.45,130.029,193.229z"/>
<path fill="#A7A8AF" d="M329.003,25.811l-14.855,2.989c0,0-1.039,0.26-3.379-0.52c0,0-3.964-0.065-6.368,2.209
	c0,0-0.065,1.234-1.169,1.689c0,0-1.885,2.144,0.975,2.859c0,0,2.404,0.13,0.455,1.754c0,0-2.016,2.08,0.715,2.859
	c0,0,1.451-0.239,1.559,0.13c0,0,4.939-0.779,7.538-2.144c0,0,1.429-1.04,2.208-1.04c0,0,11.723-1.673,12.736-1.932
	c0,0,0.951-0.545,3.217,0.381c0,0,3.412,0.853,4.046-0.073c0,0,3.196-2.135,1.948-6.079c-1.205-3.814-5.227-3.943-5.848-3.96
	C331.928,24.91,329.003,25.811,329.003,25.811z"/>
<path fill="#A7A8AF" d="M169.99,48.597c0,0,7.365-2.31,8.783-2.676c0.886-0.271,1.106,2.486,0.709,2.619
	c-0.397,0.133-8.588,2.613-8.588,2.613S168.927,50.13,169.99,48.597z"/>
<path fill="#A7A8AF" d="M307.715,45.889l9.617-2.729c0,0,1.948,1.559,0.909,2.469l-9.877,2.794
	C308.364,48.423,307,48.423,307.715,45.889z"/>
<path fill="#A7A8AF" d="M317.396,78.184l8.901-2.47c0,0,1.204-0.725,0.326-2.47l-10.754,2.884
	C315.87,76.128,315.879,77.949,317.396,78.184z"/>
<path fill="#EFEFEF" d="M308.632,45.629l-1.697-5.848c0,0,3.64-0.52,7.538-2.144l1.845,5.811L308.632,45.629z"/>
<path fill="#EFEFEF" d="M177.805,46.044l-7.457-22.573c0,0-4.094-0.13-6.108,1.885l7.296,22.607L177.805,46.044z"/>
<path fill="#333333" d="M164.241,25.355c0,0,0.065-1.202-1.007-0.715c0,0-3.704,2.047-6.141-1.852c0,0-0.877-1.169-0.877-2.144
	c0,0-1.267-1.072-1.365-1.462c0,0-6.595,1.137-9.097-2.762l-2.892-3.899c0,0,5.101,2.664,5.329,2.469c0,0,1.105,2.859,2.924,2.632
	l4.256-0.292l-0.13-1.495c0,0,6.693-2.144,6.758-2.534c0,0,0.682,2.794,1.397,2.6c0,0,5.815-0.195,7.375-2.047l9.162-5.296
	c0,0,2.892-0.682,4.256-0.26l-12.736,7.635c0,0-1.04,0.942-5.914,1.657c0,0,0.033,1.04-1.007,2.014l4.516,1.625
	c0,0,0.845-0.066,1.299,2.241C170.349,23.471,166.45,23.146,164.241,25.355z"/>
<path fill="#EFEFEF" d="M350.73,157.913c0,0,1.949,0.131,2.729,4.029c0,0,1.039,3.768,5.197,2.209c0,0,2.6-2.209,1.17-5.068
	c0,0-0.73-1.202-2.729-1.592c0,0-0.779-0.195-2.29-2.778l-6.726-9.064c0,0-3.412-4.191-6.773-15.352l-12.672-46.833
	c0,0-2.049-7.44-2.34-7.652l-8.723,2.373c0,0,0,0.893,0.244,1.721l8.479,31.094c0,0,4.402,13.096,6.971,18.957
	c0,0,2.824,8.365,12.523,21.346L350.73,157.913z"/>
<ellipse fill="#A7A8AF" cx="356.773" cy="161.227" rx="2.274" ry="2.145"/>
<ellipse fill="#353535" cx="356.839" cy="161.194" rx="1.169" ry="1.072"/>
<path fill="#A0A0A0" d="M233.931,182.377c2.209-0.748-0.032-1.396-0.032-1.396c-2.015-0.748,0.228-1.528,0.228-1.528
	c2.08-0.683-0.13-1.526-0.13-1.526c-1.885-0.682-0.26-1.56-0.26-1.56c2.729-0.716-0.163-1.657-0.163-1.657
	c-1.299-0.91-0.479-1.462-0.479-1.462c2.25-1.169-0.431-1.853-0.431-1.853c-1.397-0.551-0.232-1.266-0.232-1.266
	c1.749-1.137-0.515-1.04-0.515-1.04c-1.625-0.454-0.78-1.899-0.78-1.899c1.267-1.476-0.78-0.668-0.78-0.668
	c-2.209,0.455-1.396-1.071-1.396-1.071c1.722-2.241-0.779-1.302-0.779-1.302c-1.527,0.553-1.365-1.104-1.365-1.104
	c0.975-1.883-0.975-0.584-0.975-0.584c-1.852,0.748-1.592-1.072-1.592-1.072c0.682-2.371-0.943-0.584-0.943-0.584
	c-1.559,1.039-1.656-0.455-1.656-0.455c0.13-2.145-1.072-0.594-1.072-0.594c-1.364,1.682-1.933-0.316-1.933-0.316
	c-0.211-2.047-1.154-0.13-1.154-0.13c-1.02,1.364-1.588,0.005-1.588,0.005c-0.646-1.395-1.434,0.742-1.434,0.742
	c-0.552,1.494-1.689,0.228-1.689,0.228c-1.072-1.689-1.594,0.415-1.594,0.415c-0.197,1.194-1.037,0.365-1.037,0.365
	c-1.527-2.178-1.835-0.066-1.835-0.066c-0.211,1.561-1.219,0.391-1.219,0.391c-1.365-1.463-1.137,0.325-1.137,0.325
	c0.098,2.21-1.852,1.104-1.852,1.104c-1.43-0.975-0.683,0.682-0.683,0.682c0.228,1.982-1.689,1.365-1.689,1.365
	c-1.624-0.617-0.455,0.844-0.455,0.844c0.747,1.625-1.202,1.365-1.202,1.365c-2.079-0.52-0.715,1.138-0.715,1.138
	c1.104,1.56-1.04,1.592-1.04,1.592c-1.82-0.162-0.324,1.104-0.324,1.104c1.332,1.007-0.357,1.462-0.357,1.462
	c-2.632,0.293-0.325,1.463-0.325,1.463c1.859,0.893-0.325,1.688-0.325,1.688c-2.015,0.424-0.292,1.269-0.292,1.269
	c1.689,0.78,0.26,1.722,0.26,1.722c-2.079,0.617-0.023,1.254-0.023,1.254c1.601,0.379,0.316,1.28,0.316,1.28
	c-2.079,1.267,0.306,1.689,0.306,1.689c1.898,0.292,0.766,1.788,0.766,1.788c-1.723,0.908,0,1.137,0,1.137
	c1.852-0.131,0.942,1.624,0.942,1.624c-1.234,1.43,0.553,0.878,0.553,0.878c2.046-0.488,1.495,1.364,1.495,1.364
	c-1.268,1.722,0.421,1.267,0.421,1.267c1.917-0.715,1.495,1.234,1.495,1.234c-0.78,1.754,0.618,0.779,0.618,0.779
	c1.592-0.584,1.202,0.618,1.202,0.618c-0.325,2.274,1.56,0.454,1.56,0.454c1.217-1.047,1.608,0.797,1.608,0.797
	c-0.407,2.649,1.656,0.695,1.656,0.695c1.218-1.043,1.382,0.498,1.382,0.498c0.033,1.729,1.365,0,1.365,0
	c1.185-0.596,1.259,0.704,1.259,0.704c0.512,2.239,1.275,0.165,1.275,0.165c1.006-1.592,1.917-0.11,1.917-0.11
	c0.553,0.962,1.039-0.214,1.039-0.214c0.877-1.853,2.047-0.293,2.047-0.293c0.748,1.235,1.041-0.176,1.041-0.176
	c0.262-1.865,1.883-0.733,1.883-0.733c1.008,1.072,1.138-0.292,1.138-0.292c-0.261-2.158,2.012-1.026,2.012-1.026
	c1.589,0.987,0.847-0.729,0.847-0.729c-0.812-2.047,1.105-0.845,1.105-0.845c1.624,0.617,0.779-0.975,0.779-0.975
	c-0.715-1.819,1.137-1.234,1.137-1.234c2.015,0.39,0.846-1.008,0.846-1.008c-1.365-1.949,0.584-1.722,0.584-1.722
	c2.632,0.942,1.105-1.138,1.105-1.138c-0.585-1.623,1.461-0.877,1.461-0.877c1.398,0.293,0.258-0.877,0.258-0.877
	C232.204,183.581,233.931,182.377,233.931,182.377z M215.828,193.651c-8.579,0-15.533-6.954-15.533-15.533
	c0-8.578,6.955-15.533,15.533-15.533c8.579,0,15.533,6.955,15.533,15.533C231.361,186.697,224.407,193.651,215.828,193.651z"/>
<g>
	<path fill="#B5B5B5" d="M201.324,179.364c-0.026-0.014-0.053-0.027-0.077-0.041C201.275,179.338,201.301,179.352,201.324,179.364z"
		/>
	<path fill="#B5B5B5" d="M201.247,179.323c-0.01-0.004-0.02-0.01-0.03-0.016C201.227,179.313,201.236,179.318,201.247,179.323z"/>
	<path fill="#B5B5B5" d="M209.758,191.329c-0.045,0.043-0.081,0.078-0.112,0.107C209.679,191.404,209.717,191.368,209.758,191.329z"
		/>
	<path fill="#B5B5B5" d="M201.217,179.307c-0.047-0.023-0.092-0.048-0.133-0.07C201.131,179.262,201.176,179.287,201.217,179.307z"
		/>
	<path fill="#B5B5B5" d="M201.083,179.237c-0.056-0.028-0.114-0.059-0.171-0.09C200.964,179.174,201.02,179.204,201.083,179.237z"/>
	<path fill="#B5B5B5" d="M201.392,179.399c-0.021-0.01-0.041-0.021-0.062-0.031C201.357,179.382,201.378,179.393,201.392,179.399z"
		/>
	<path fill="#B5B5B5" d="M209.55,191.527C209.52,191.555,209.516,191.559,209.55,191.527L209.55,191.527z"/>
	<path fill="#B5B5B5" d="M201.33,179.368c-0.002-0.001-0.004-0.002-0.006-0.004C201.326,179.366,201.328,179.367,201.33,179.368z"/>
	<path fill="#B5B5B5" d="M209.646,191.436c-0.028,0.025-0.052,0.049-0.071,0.067C209.593,191.486,209.616,191.463,209.646,191.436z"
		/>
	<path fill="#B5B5B5" d="M209.575,191.503c-0.01,0.009-0.018,0.017-0.025,0.023C209.557,191.52,209.566,191.512,209.575,191.503z"/>
	<path fill="#B5B5B5" d="M229.464,178.739c-1.316-0.975,0.194-1.755,0.194-1.755c1.657-0.73-0.048-1.267-0.048-1.267
		c-1.219-0.486-0.098-1.608-0.098-1.608c1.412-1.072-0.352-1.009-0.352-1.009c-1.521-0.461-0.478-1.477-0.478-1.477
		c1.315-1.656-0.503-1.219-0.503-1.219c-1.674,0.098-1.252-1.365-1.252-1.365c0.975-1.948-0.828-1.055-0.828-1.055
		c-1.527,0.228-1.299-1.198-1.299-1.198c0.486-1.653-0.91-0.751-0.91-0.751c-1.82,0.617-1.689-1.072-1.689-1.072
		c0.195-1.656-0.975-0.487-0.975-0.487c-1.332,0.975-1.787-0.325-1.787-0.325c-0.13-2.047-0.975-0.553-0.975-0.553
		c-1.299,1.398-2.08-0.162-2.08-0.162c-0.39-1.462-1.007-0.098-1.007-0.098c-1.072,1.69-1.852,0.065-1.852,0.065
		c-0.748-1.526-1.088,0-1.088,0c-0.211,1.95-1.641,0.585-1.641,0.585c-1.104-1.201-1.169,0.487-1.169,0.487
		c0.065,2.241-1.722,1.17-1.722,1.17c-1.462-0.976-0.975,0.616-0.975,0.616c0.455,1.95-1.332,1.365-1.332,1.365
		c-1.689-0.747-0.795,0.779-0.795,0.779c0.487,1.755-1.219,1.561-1.219,1.561c-1.56-0.537-0.682,0.828-0.682,0.828
		c0.926,1.754-0.877,1.852-0.877,1.852c-1.429-0.049-0.292,0.957-0.292,0.957c1.411,1.192-0.187,1.779-0.302,1.819
		c-0.002,0.001-0.004,0.002-0.006,0.002c0,0,0.002-0.001,0.006-0.002c-0.004,0.001-0.006,0.002-0.006,0.002
		c-1.511,0.521-0.049,1.169-0.049,1.169c1.202,0.779-0.098,1.459-0.098,1.459c-1.385,0.532,0.035,1.305,0.125,1.354
		c-0.003-0.002-0.007-0.004-0.013-0.008c0.006,0.004,0.011,0.007,0.017,0.01c2.014,1.061,0.325,2.222,0.325,2.222
		c-1.202,0.812,0.292,0.812,0.292,0.812c1.917,0.423,0.942,1.95,0.942,1.95c-1.169,1.04,0.357,0.845,0.357,0.845
		c2.079-0.131,1.332,1.656,1.332,1.656c-0.91,1.268,0.455,0.65,0.455,0.65c1.917-0.357,1.689,1.43,1.689,1.43
		c-0.65,1.689,0.748,0.648,0.748,0.648c1.819-0.908,1.527,0.879,1.527,0.879s0-0.006,0.002-0.015
		c-0.001,0.005-0.002,0.009-0.002,0.015c-0.276,1.52,0.535,0.943,0.918,0.602c-0.074,0.071-0.159,0.152-0.237,0.227
		c0.063-0.061,0.143-0.137,0.237-0.227c0.113-0.1,0.189-0.18,0.189-0.18s-0.011,0.01-0.029,0.027
		c0.01-0.009,0.019-0.018,0.029-0.027c1.383-1.32,1.47,0.315,1.475,0.537v-0.002v0.002c0,0.016,0,0.025,0,0.025
		c0.032,2.072,1.332,0.607,1.332,0.607c1.316-1.754,2.161,0.146,2.161,0.146c0.357,1.755,0.812,0.147,0.812,0.147
		c0.975-1.609,2.145-0.514,2.145-0.514c0.828,1.973,1.023,0,1.023,0c0.568-1.539,1.9-0.559,1.9-0.559
		c1.072,1.363,0.926-0.196,0.926-0.196c0-2.097,1.804-1.169,1.804-1.169c1.462,1.121,0.877-0.584,0.877-0.584
		c-0.341-2.242,1.218-0.976,1.218-0.976c2.096,0.73,0.98-1.169,0.98-1.169c-0.969-1.803,0.823-1.365,0.823-1.365
		c1.608,0.535,0.78-0.926,0.78-0.926c-1.17-1.804,0.341-1.462,0.341-1.462c1.949,0.048,0.491-1.235,0.491-1.235
		c-1.41-1.283,0.24-1.934,0.24-1.934C231.267,179.323,229.464,178.739,229.464,178.739z M201.583,175.372
		c0.042-0.016,0.09-0.031,0.14-0.049C201.68,175.337,201.634,175.354,201.583,175.372z M201.438,175.42c0.002,0,0.004,0,0.007-0.002
		C201.442,175.42,201.439,175.42,201.438,175.42z M201.479,175.407c0.004-0.002,0.009-0.003,0.014-0.004
		C201.488,175.404,201.484,175.405,201.479,175.407z M202.094,175.195c-0.004,0.002-0.014,0.005-0.031,0.011
		C202.08,175.2,202.09,175.196,202.094,175.195z M202.037,175.215c-0.008,0.002-0.019,0.006-0.029,0.01
		C202.018,175.221,202.028,175.217,202.037,175.215z M201.969,175.238c-0.023,0.009-0.051,0.017-0.082,0.028
		C201.917,175.256,201.944,175.247,201.969,175.238z M201.838,175.283c-0.018,0.007-0.036,0.013-0.055,0.02
		C201.802,175.295,201.82,175.29,201.838,175.283z M204.82,172.76c0,0,1.56-3.281,3.737-4.516c0,0,0.747-0.521,1.592,0.357
		c0,0,1.884,2.437,1.884,2.599c0,0,0.325,4.517-3.086,4.825c0,0-3.281-1.089-3.866-1.738
		C205.08,174.288,204.384,173.573,204.82,172.76z M209.122,190.252c0.008-0.045,0.016-0.091,0.025-0.139
		C209.139,190.157,209.13,190.203,209.122,190.252z M209.234,189.631C209.235,189.626,209.235,189.625,209.234,189.631
		L209.234,189.631z M209.189,189.88c0.003-0.019,0.006-0.035,0.009-0.052C209.196,189.844,209.192,189.862,209.189,189.88z
		 M209.214,189.742c0.001-0.009,0.003-0.019,0.004-0.027C209.218,189.723,209.216,189.733,209.214,189.742z M209.225,189.683
		c0.002-0.013,0.004-0.023,0.006-0.032C209.229,189.659,209.227,189.67,209.225,189.683z M210.059,191.042
		c0.022-0.021,0.047-0.045,0.071-0.068C210.11,190.993,210.086,191.015,210.059,191.042z M211.656,191.266
		c0,0.045,0.001,0.096,0.002,0.146C211.657,191.375,211.657,191.325,211.656,191.266z M211.645,190.588
		C211.645,190.559,211.645,190.555,211.645,190.588L211.645,190.588z M211.646,190.659c0,0.008,0,0.018,0,0.025
		C211.646,190.676,211.646,190.667,211.646,190.659z M211.648,190.772c0,0.043,0.001,0.092,0.002,0.148
		C211.649,190.868,211.649,190.819,211.648,190.772z M211.651,190.949c0,0.026,0,0.054,0.001,0.083
		C211.651,191.004,211.651,190.977,211.651,190.949z M211.654,191.187c0,0.011,0,0.024,0,0.036
		C211.655,191.211,211.654,191.2,211.654,191.187z M209.754,186.385c0,0-0.822,1.254-1.935,0.248c0,0-2.868-2.455-3.201-5.354
		c0,0-0.352-1.204,0.871-1.419l3.285-0.896c0,0,3.358,0.992,3.372,4.263C212.146,183.226,210.002,186.104,209.754,186.385z
		 M216.841,165.97c0,0,3.769,0.228,5.783,2.339c0,0,1.008,0.748,0.163,1.658l-2.079,2.695c0,0-3.278,1.235-5.262-1.363
		c0,0-0.026-3.589,0.001-3.965C215.448,167.334,215.347,165.84,216.841,165.97z M221.884,188.116c0,0-3.195,2.012-6.063,1.471
		c0,0-1.254-0.021-1.098-1.252l0.118-3.403c0,0,1.944-2.913,5.07-1.958c0,0,2.113,2.9,2.31,3.222
		C222.221,186.195,223.173,187.35,221.884,188.116z M226.694,181.53c0,0-0.342,1.206-1.492,0.738l-3.258-0.989
		c0,0-2.314-2.629-0.586-5.404c0,0,3.346-1.296,3.707-1.401c0,0,1.361-0.624,1.77,0.819
		C226.835,175.292,227.956,178.898,226.694,181.53z"/>
	<path fill="#B5B5B5" d="M200.912,179.147c-0.126-0.066-0.218-0.114-0.281-0.147C200.706,179.04,200.807,179.092,200.912,179.147z"
		/>
	<path fill="#B5B5B5" d="M211.659,191.459c0,0.016,0,0.025,0,0.025C211.659,191.475,211.659,191.468,211.659,191.459
		L211.659,191.459z"/>
	<path fill="#B5B5B5" d="M200.53,178.946C200.51,178.936,200.508,178.934,200.53,178.946L200.53,178.946z"/>
	<path fill="#B5B5B5" d="M200.631,179c-0.014-0.007-0.027-0.014-0.039-0.021C200.604,178.985,200.617,178.993,200.631,179z"/>
	<path fill="#B5B5B5" d="M200.592,178.979c-0.029-0.016-0.05-0.026-0.062-0.033C200.543,178.954,200.564,178.964,200.592,178.979z"
		/>
</g>
<path fill="#1C1C1C" d="M228.181,172.338l-2.307-3.312c0,0-10.543,9.42-12.314-4.55l-3.639,1.104c0,0,6.563,12.898-8.09,10.039
	l-0.098,3.703c0,0,13.646-1.559,7.343,11.178l3.411,1.299c0,0,1.754-13.449,12.703-3.703l2.535-2.795
	C227.726,185.301,218.53,178.219,228.181,172.338z M215.152,182.231c-1.929,0-3.493-1.563-3.493-3.492
	c0-1.93,1.563-3.492,3.493-3.492c1.929,0,3.493,1.562,3.493,3.492C218.645,180.667,217.081,182.231,215.152,182.231z"/>
<path fill="#8E8E8E" d="M241.015,181.047c0,0-1.723-1.105,0.195-1.756c0,0,1.137-0.779,0.032-1.332c0,0-2.177-0.975,0.032-1.689
	c0,0,0.844-0.584-0.228-0.844c0,0-2.664-0.877-0.454-2.242c0,0,1.201-0.91-0.229-1.137c0,0-2.111-0.229-0.584-1.723
	c0,0,1.169-1.039-0.488-1.007c0,0-2.403-0.39-0.714-1.82c0,0,0.909-1.624-0.747-1.136c0,0-1.897,0.551-0.852-1.594
	c0,0,1.111-1.526-1.261-0.584c0,0-1.981,0.455-0.521-2.08c0,0,0.488-1.396-1.137-0.455c0,0-2.242,0.455-1.104-1.852
	c0,0,0.683-1.429-1.169-0.227c0,0-2.178,0.292-1.105-1.56c0,0,0.683-1.593-1.104-0.585c0,0-2.341,0.877-1.397-1.396
	c0,0,0.195-1.853-1.689,0c0,0-1.624,0.422-1.104-1.332c0,0,0-1.82-1.234-0.293c0,0-1.722,1.77-1.853-0.61c0,0-0.227-1.878-1.267,0
	c0,0-1.495,1.292-1.592-1.015c0,0-0.423-1.364-1.267,0.488c0,0-1.105,1.852-1.95-0.391c0,0-0.455-1.592-1.007,0.098
	c0,0-1.104,2.145-1.949,0c0,0-0.455-1.593-1.267,0.227c0,0-0.683,1.528-1.819,0.033c0,0-0.91-1.722-1.203,0.227
	c0,0-0.227,2.112-1.592,0.65c0,0-1.072-1.463-1.137,0.422c0,0-0.065,1.723-1.592,0.846c0,0-1.365-1.787-1.202,0.455
	c0,0,0.195,1.754-1.56,0.941c0,0-1.3-1.396-1.007,0.65c0,0,0.228,1.592-1.332,1.039c0,0-1.494-1.008-1.104,0.878
	c0,0,0.65,1.592-1.04,1.332c0,0-1.465-0.942-0.944,0.812c0,0,0.457,1.592-1.168,1.495c0,0-1.917-0.878-0.617,0.78
	c0,0,0.877,1.754-1.04,1.754c0,0-2.177-0.779-0.715,0.941c0,0,1.007,1.527-0.714,1.689c0,0-1.949-0.227-0.552,0.942
	c0,0,1.234,1.462-0.487,1.917c0,0-1.562,0.389-0.749,0.861c0,0,2.096,1.412-0.341,2.339c0,0-1.089,0.211,0,0.796
	c0,0,1.803,0.942-0.082,2.177c0,0-1.429,0.581,0.163,1.2c0,0,1.548,0.685,0.173,1.627c0,0-1.452,0.779,0,1.234
	c0,0,1.809,0.584,0.282,1.852c0,0-1.169,0.649,0.163,0.975c0,0,1.968,0.748,0.48,2.08c0,0-1.299,1.104,0.556,1.137
	c0,0,1.758,0.13,0.653,1.689c0,0-1.007,1.396,0.585,1.007c0,0,2.015-0.227,0.975,1.819c0,0-0.845,1.072,0.812,0.747
	c0,0,1.754-0.194,1.072,1.462c0,0-0.91,1.43,0.682,1.041c0,0,1.754-0.684,1.299,1.332c0,0-0.584,1.494,0.812,0.746
	c0,0,1.884-0.648,1.495,1.268c0,0-0.422,1.494,0.845,0.617c0,0,1.884-1.104,1.657,1.202c0,0-0.228,1.722,1.072,0.358
	c0,0,1.657-1.072,1.82,0.975c0,0-0.13,1.592,0.877,0.324c0,0,1.95-1.527,2.015,0.91c0,0,0.13,1.754,1.137,0
	c0,0,1.267-1.527,1.852,0.455c0,0,0.52,1.852,1.137-0.065c0,0,1.007-1.3,1.592,0.261c0,0,0.617,1.494,1.234,0.162
	c0,0,1.007-1.885,2.046-0.098c0,0,0.683,1.17,0.975-0.098c0,0,0.748-1.723,1.689-0.195c0,0,1.105,1.105,1.234-0.324
	c0,0,0.423-1.625,1.658-0.878c0,0,1.331,1.365,1.396-0.032c0,0,0.098-1.916,1.689-0.779c0,0,1.332,0.747,1.202-0.683
	c0,0,0.032-1.754,1.722-0.714c0,0,1.105,0.481,0.78-0.605c0,0-0.228-1.768,1.624-1.085c0,0,1.332,0.617,0.877-0.878
	c0,0-0.454-2.078,1.561-1.07c0,0,1.364,0.194,0.617-1.04c0,0-0.65-1.819,1.268-1.397c0,0,1.526,0.162,0.52-1.072
	c0,0-0.877-1.754,1.137-1.462c0,0,1.462,0.195,0.553-1.104c0,0-1.139-1.917,0.974-1.787c0,0,1.171-0.064,0.163-1.039
	c0,0-1.234-1.592,0.715-1.689c0,0,1.527-0.261,0.357-1.3c0,0-1.299-1.56,0.65-1.853
	C240.853,182.411,242.087,181.664,241.015,181.047z M229.756,164.215c0,0,0.536-2.777,1.755-1.217c0,0,3.557,3.654,4.482,6.676
	c0,0,0.586,1.023-0.828,1.219c0,0-1.169,0.389-3.752-1.658C231.413,169.235,229.171,167.188,229.756,164.215z M205.632,158.221
	c0,0,2.145-1.998,8.09-2.145c0,0,0.975-0.097,0.78,1.072c0,0-0.894,2.453-2.063,3.022c0,0-0.715,0.78-4.126,0.827
	c0,0-1.901-0.292-2.973-1.607C205.34,159.391,204.932,158.702,205.632,158.221z M194.618,181.76c0,0-1.072,0.779-1.218-0.634
	c0,0-0.083-7.31,0.39-7.992c0,0,0.341-1.267,1.267-0.487c0,0,1.414,0.861,2.144,2.6c0,0,0.877,2.42-0.341,4.662
	C196.86,179.909,195.496,181.663,194.618,181.76z M211.87,200.036c0,0-4.045-0.39-8.236-3.119c0,0-0.325-0.678,0-0.926
	c0,0,2.485-2.096,4.581-1.316c0,0,2.778,1.023,3.021,1.609c0,0,1.218,0.938,1.462,2.904
	C212.699,199.188,212.894,200.133,211.87,200.036z M235.116,188.924c0,0-2.388,3.947-5.02,5.848c0,0-0.584,0.635-1.267,0
	c0,0-0.829-1.9,0-3.703c0,0,0.926-2.389,2.826-3.119c0,0,1.462-0.585,3.217-0.438C234.873,187.511,235.799,187.559,235.116,188.924z
	 M235.312,183.856c-2.875,3.216-7.586,1.445-7.586,1.445l-2.535,2.795c1.771,2.729,1.105,5.604,1.105,5.604
	c-3.168,9.211-11.144,4.045-11.144,4.045c-3.249-2.29-2.664-5.945-2.664-5.945l-3.411-1.299c-1.917,2.308-4.76,2.615-4.76,2.615
	c-9.308-0.098-7.749-8.578-7.749-8.578c1.316-4.482,5.166-5.215,5.166-5.215l0.098-3.703c-3.801-1.705-4.581-4.922-4.581-4.922
	c-1.073-9.406,7.358-8.577,7.358-8.577c4.922,0.828,5.312,3.46,5.312,3.46l3.639-1.104c-0.016-3.589,2.94-5.669,2.94-5.669
	c7.311-3.947,10.526,2.826,10.526,2.826c1.949,4.629-1.152,7.393-1.152,7.393l2.307,3.312c3.979-1.381,7.131,1.479,7.131,1.479
	C239.064,178.69,235.312,183.856,235.312,183.856z"/>
<path fill="none" stroke="#383838" stroke-width="5" stroke-miterlimit="10" d="M116.449,148.914l78.414,4.747
	c0,0,12.874-0.48,15.137-0.715c2.263-0.235,2.263-0.235,2.263-0.235s11.791-3.017,23.195,10.044c0,0,7.992,7.213,4.094,23.489
	c0,0-2.047,10.722-14.035,15.595c0,0-2.535,2.374-15.401,2.309c0,0-67.546,0.031-73.881-0.846c0,0-7.505-0.293-9.26-0.391
	c0,0-6.141-1.56-2.827-10.428l3.021-13.062c0,0,0.585-4.776-5.166-6.237c0,0-10.137,2.09-15.205-4.809c0,0-2.291-7.279-0.585-11.08
	C106.214,157.295,108.968,149.303,116.449,148.914z"/>
<path fill="#7C7C7C" d="M176.847,202.976c0,0-0.942,0.136-0.91,1.075c0,0-0.098,0.939,0.91,1.135c0,0,0.812,0,1.104-0.391
	c0,0,0.52-0.422,1.267,0c0,0,0.91,0.878,1.689-0.064c0,0,0.748-0.91-0.26-1.592c0,0-0.78-0.424-1.332,0.162
	c0,0-0.942,0.39-1.397-0.065C177.919,203.236,177.28,202.811,176.847,202.976z"/>
<path fill="#7C7C7C" d="M170.943,202.976c0,0-0.942,0.136-0.91,1.075c0,0-0.098,0.939,0.91,1.135c0,0,0.812,0,1.104-0.391
	c0,0,0.52-0.422,1.267,0c0,0,0.91,0.878,1.689-0.064c0,0,0.748-0.91-0.26-1.592c0,0-0.78-0.424-1.332,0.162
	c0,0-0.942,0.39-1.397-0.065C172.015,203.236,171.376,202.811,170.943,202.976z"/>
<path fill="#7C7C7C" d="M188.673,202.976c0,0-0.942,0.136-0.91,1.075c0,0-0.098,0.939,0.91,1.135c0,0,0.812,0,1.104-0.391
	c0,0,0.52-0.422,1.267,0c0,0,0.91,0.878,1.689-0.064c0,0,0.747-0.91-0.26-1.592c0,0-0.78-0.424-1.332,0.162
	c0,0-0.942,0.39-1.397-0.065C189.745,203.236,189.106,202.811,188.673,202.976z"/>
<path fill="#7C7C7C" d="M182.769,202.976c0,0-0.942,0.136-0.91,1.075c0,0-0.098,0.939,0.91,1.135c0,0,0.812,0,1.104-0.391
	c0,0,0.521-0.422,1.268,0c0,0,0.91,0.878,1.689-0.064c0,0,0.747-0.91-0.26-1.592c0,0-0.78-0.424-1.332,0.162
	c0,0-0.942,0.39-1.397-0.065C183.841,203.236,183.203,202.811,182.769,202.976z"/>
<path fill="#7C7C7C" d="M200.824,202.976c0,0-0.942,0.136-0.91,1.075c0,0-0.097,0.939,0.91,1.135c0,0,0.812,0,1.105-0.391
	c0,0,0.52-0.422,1.267,0c0,0,0.91,0.878,1.689-0.064c0,0,0.747-0.91-0.26-1.592c0,0-0.779-0.424-1.332,0.162
	c0,0-0.942,0.39-1.397-0.065C201.896,203.236,201.258,202.811,200.824,202.976z"/>
<path fill="#7C7C7C" d="M207.064,203.024c0,0-0.938,0.163-0.879,1.101c0,0-0.071,0.941,0.941,1.108c0,0,0.812-0.023,1.093-0.421
	c0,0,0.508-0.437,1.267-0.035c0,0,0.934,0.852,1.687-0.112c0,0,0.722-0.93-0.304-1.584c0,0-0.792-0.4-1.327,0.199
	c0,0-0.931,0.416-1.398-0.026C208.144,203.253,207.494,202.846,207.064,203.024z"/>
<path fill="#7C7C7C" d="M213.178,203.04c0,0-0.934,0.188-0.85,1.123c0,0-0.046,0.943,0.97,1.082c0,0,0.811-0.043,1.082-0.449
	c0,0,0.496-0.45,1.265-0.068c0,0,0.957,0.826,1.684-0.158c0,0,0.697-0.948-0.346-1.574c0,0-0.802-0.379-1.322,0.234
	c0,0-0.919,0.44-1.398,0.011C214.263,203.24,213.602,202.85,213.178,203.04z"/>
<path fill="#7C7C7C" d="M219.293,202.709c0,0-0.882,0.362-0.621,1.265c0,0,0.134,0.935,1.158,0.879c0,0,0.788-0.197,0.976-0.647
	c0,0,0.402-0.535,1.23-0.307c0,0,1.096,0.629,1.622-0.475c0,0,0.504-1.064-0.639-1.481c0,0-0.859-0.22-1.253,0.481
	c0,0-0.818,0.607-1.371,0.277C220.396,202.702,219.673,202.444,219.293,202.709z"/>
<path fill="#7C7C7C" d="M224.849,201.155c0,0-0.766,0.568-0.291,1.379c0,0,0.359,0.873,1.34,0.566c0,0,0.714-0.385,0.786-0.867
	c0,0,0.257-0.619,1.115-0.602c0,0,1.218,0.34,1.456-0.859c0,0,0.227-1.155-0.984-1.277c0,0-0.887-0.002-1.096,0.775
	c0,0-0.644,0.79-1.26,0.605C225.915,200.875,225.151,200.803,224.849,201.155z"/>
<path fill="#7C7C7C" d="M230.192,198.306c0,0-0.627,0.718,0.008,1.409c0,0,0.537,0.775,1.43,0.268c0,0,0.617-0.528,0.584-1.014
	c0,0,0.121-0.658,0.963-0.825c0,0,1.262,0.073,1.24-1.149c0,0-0.025-1.177-1.234-1.039c0,0-0.866,0.187-0.905,0.99
	c0,0-0.462,0.909-1.103,0.859C231.175,197.805,230.413,197.899,230.192,198.306z"/>
<path fill="#7C7C7C" d="M234.462,194.268c0,0-0.42,0.855,0.374,1.357c0,0,0.72,0.61,1.45-0.111c0,0,0.457-0.67,0.301-1.132
	c0,0-0.056-0.667,0.715-1.046c0,0,1.236-0.256,0.898-1.432c0,0-0.329-1.131-1.461-0.684c0,0-0.788,0.406-0.617,1.191
	c0,0-0.209,0.998-0.842,1.117C235.28,193.53,234.569,193.817,234.462,194.268z"/>
<path fill="#7C7C7C" d="M237.593,189.079c0,0-0.158,0.939,0.746,1.195c0,0,0.864,0.38,1.357-0.52c0,0,0.248-0.773-0.034-1.171
	c0,0-0.243-0.624,0.386-1.207c0,0,1.114-0.599,0.455-1.628c0,0-0.639-0.99-1.596-0.238c0,0-0.64,0.613-0.252,1.317
	c0,0,0.084,1.017-0.488,1.31C238.167,188.137,237.567,188.616,237.593,189.079z"/>
<path fill="#7C7C7C" d="M239.048,183.156c0,0,0.031,0.952,0.967,1.024c0,0,0.924,0.201,1.229-0.777c0,0,0.09-0.809-0.264-1.143
	c0,0-0.361-0.562,0.141-1.259c0,0,0.973-0.806,0.123-1.686c0,0-0.82-0.845-1.611,0.081c0,0-0.506,0.728,0.014,1.342
	c0,0,0.283,0.979-0.22,1.381C239.426,182.12,238.933,182.708,239.048,183.156z"/>
<path fill="#7C7C7C" d="M239.5,177.469c0,0,0.177,0.936,1.114,0.862c0,0,0.941,0.058,1.094-0.958c0,0-0.035-0.811-0.438-1.086
	c0,0-0.443-0.502-0.054-1.266c0,0,0.838-0.947-0.138-1.686c0,0-0.94-0.708-1.579,0.328c0,0-0.388,0.797,0.22,1.323
	c0,0,0.43,0.925-0.006,1.398C239.714,176.386,239.316,177.042,239.5,177.469z"/>
<path fill="#7C7C7C" d="M238.827,171.671c0,0,0.432,0.849,1.311,0.517c0,0,0.92-0.21,0.78-1.227c0,0-0.261-0.77-0.724-0.921
	c0,0-0.566-0.356-0.408-1.2c0,0,0.539-1.143-0.604-1.578c0,0-1.102-0.415-1.425,0.758c0,0-0.149,0.874,0.583,1.209
	c0,0,0.672,0.767,0.387,1.344C238.728,170.573,238.53,171.314,238.827,171.671z"/>
<path fill="#7C7C7C" d="M236.673,166.432c0,0,0.647,0.697,1.401,0.136c0,0,0.827-0.454,0.415-1.394c0,0-0.462-0.667-0.949-0.686
	c0,0-0.643-0.188-0.721-1.043c0,0,0.204-1.247-1.014-1.352c0,0-1.174-0.098-1.162,1.119c0,0,0.096,0.881,0.891,1.003
	c0,0,0.857,0.554,0.742,1.185C236.276,165.401,236.29,166.168,236.673,166.432z"/>
<path fill="#7C7C7C" d="M232.877,161.699c0,0,0.772,0.556,1.401-0.142c0,0,0.723-0.608,0.133-1.448c0,0-0.584-0.564-1.065-0.486
	c0,0-0.667-0.058-0.911-0.88c0,0-0.045-1.264-1.261-1.127c0,0-1.169,0.136-0.919,1.326c0,0,0.268,0.845,1.072,0.808
	c0,0,0.947,0.374,0.959,1.017C232.286,160.766,232.45,161.516,232.877,161.699z"/>
<path fill="#7C7C7C" d="M228.322,157.665c0,0,0.868,0.391,1.345-0.418c0,0,0.586-0.74-0.159-1.445c0,0-0.686-0.437-1.142-0.264
	c0,0-0.664,0.076-1.068-0.68c0,0-0.297-1.229-1.461-0.854c0,0-1.118,0.367-0.635,1.484c0,0,0.432,0.773,1.211,0.576
	c0,0,1.004,0.178,1.145,0.805C227.558,156.87,227.867,157.573,228.322,157.665z"/>
<path fill="#7C7C7C" d="M223.189,155.036c0,0,0.943,0.127,1.169-0.785c0,0,0.351-0.877-0.566-1.34c0,0-0.78-0.221-1.168,0.074
	c0,0-0.615,0.264-1.219-0.347c0,0-0.636-1.093-1.643-0.399c0,0-0.968,0.672-0.186,1.604c0,0,0.635,0.619,1.326,0.207
	c0,0,1.012-0.117,1.326,0.443C222.229,154.493,222.728,155.077,223.189,155.036z"/>
<path fill="#7C7C7C" d="M217.461,153.527c0,0,0.945-0.113,0.936-1.053c0,0,0.12-0.937-0.883-1.155c0,0-0.812-0.02-1.113,0.363
	c0,0-0.53,0.408-1.267-0.031c0,0-0.888-0.899-1.69,0.023c0,0-0.769,0.892,0.221,1.598c0,0,0.77,0.441,1.336-0.13
	c0,0,0.951-0.366,1.395,0.099C216.396,153.241,217.023,153.682,217.461,153.527z"/>
<path fill="#7C7C7C" d="M211.342,153.786c0,0,0.932-0.199,0.837-1.134c0,0,0.035-0.944-0.983-1.071c0,0-0.811,0.054-1.076,0.463
	c0,0-0.491,0.455-1.265,0.083c0,0-0.965-0.815-1.681,0.177c0,0-0.686,0.957,0.364,1.57c0,0,0.806,0.37,1.319-0.25
	c0,0,0.914-0.451,1.398-0.027C210.255,153.596,210.92,153.979,211.342,153.786z"/>
<path fill="#7C7C7C" d="M205.275,154.213c0,0,0.931-0.198,0.836-1.133c0,0,0.035-0.943-0.983-1.071c0,0-0.811,0.054-1.076,0.462
	c0,0-0.491,0.455-1.265,0.084c0,0-0.965-0.816-1.681,0.176c0,0-0.686,0.957,0.364,1.571c0,0,0.806,0.37,1.319-0.25
	c0,0,0.914-0.451,1.398-0.027C204.188,154.025,204.853,154.407,205.275,154.213z"/>
<path fill="#7C7C7C" d="M198.838,154.647c0,0,0.937-0.172,0.869-1.109c0,0,0.062-0.941-0.953-1.098c0,0-0.812,0.03-1.089,0.432
	c0,0-0.503,0.441-1.266,0.047c0,0-0.942-0.842-1.686,0.129c0,0-0.712,0.938,0.32,1.581c0,0,0.795,0.393,1.325-0.212
	c0,0,0.926-0.426,1.398,0.012C197.757,154.428,198.411,154.829,198.838,154.647z"/>
<path fill="#7C7C7C" d="M192.712,154.663c0,0,0.938-0.163,0.878-1.102c0,0,0.07-0.941-0.942-1.106c0,0-0.812,0.022-1.093,0.422
	c0,0-0.507,0.437-1.267,0.036c0,0-0.935-0.852-1.687,0.113c0,0-0.721,0.932,0.305,1.584c0,0,0.792,0.399,1.327-0.2
	c0,0,0.931-0.417,1.398,0.024C191.633,154.434,192.284,154.841,192.712,154.663z"/>
<path fill="#7C7C7C" d="M186.403,154.25c0,0,0.948-0.091,0.959-1.029c0,0,0.142-0.935-0.855-1.177c0,0-0.811-0.038-1.122,0.337
	c0,0-0.539,0.396-1.266-0.06c0,0-0.867-0.919-1.69-0.016c0,0-0.789,0.874,0.184,1.603c0,0,0.759,0.459,1.339-0.1
	c0,0,0.959-0.344,1.392,0.132C185.344,153.941,185.961,154.395,186.403,154.25z"/>
<path fill="#7C7C7C" d="M180.538,153.925c0,0,0.948-0.091,0.959-1.03c0,0,0.142-0.934-0.855-1.176c0,0-0.811-0.039-1.121,0.337
	c0,0-0.54,0.396-1.266-0.06c0,0-0.867-0.92-1.69-0.016c0,0-0.789,0.873,0.184,1.603c0,0,0.759,0.458,1.339-0.1
	c0,0,0.959-0.344,1.392,0.132C179.479,153.616,180.097,154.071,180.538,153.925z"/>
<path fill="#7C7C7C" d="M174.309,153.572c0,0,0.948-0.091,0.959-1.03c0,0,0.143-0.934-0.855-1.176c0,0-0.811-0.039-1.122,0.338
	c0,0-0.54,0.396-1.266-0.061c0,0-0.867-0.92-1.69-0.016c0,0-0.789,0.873,0.184,1.603c0,0,0.759,0.458,1.338-0.1
	c0,0,0.959-0.345,1.393,0.132C173.25,153.262,173.868,153.716,174.309,153.572z"/>
<path fill="#7C7C7C" d="M168.235,153.108c0,0,0.948-0.091,0.96-1.031c0,0,0.141-0.934-0.856-1.176c0,0-0.811-0.038-1.121,0.338
	c0,0-0.54,0.396-1.266-0.061c0,0-0.867-0.919-1.69-0.015c0,0-0.79,0.874,0.184,1.603c0,0,0.759,0.458,1.338-0.1
	c0,0,0.959-0.345,1.393,0.131C167.176,152.797,167.793,153.252,168.235,153.108z"/>
<path fill="#7C7C7C" d="M162.366,152.831c0,0,0.948-0.091,0.959-1.03c0,0,0.142-0.934-0.855-1.177c0,0-0.812-0.038-1.122,0.339
	c0,0-0.54,0.396-1.266-0.062c0,0-0.867-0.919-1.69-0.014c0,0-0.79,0.872,0.184,1.602c0,0,0.759,0.459,1.338-0.1
	c0,0,0.96-0.344,1.393,0.131C161.308,152.52,161.925,152.975,162.366,152.831z"/>
<path fill="#7C7C7C" d="M156.389,152.375c0,0,0.948-0.091,0.96-1.03c0,0,0.142-0.934-0.855-1.176c0,0-0.811-0.039-1.122,0.338
	c0,0-0.539,0.396-1.266-0.061c0,0-0.867-0.92-1.69-0.016c0,0-0.79,0.873,0.184,1.603c0,0,0.759,0.458,1.338-0.1
	c0,0,0.959-0.345,1.392,0.132C155.331,152.065,155.948,152.52,156.389,152.375z"/>
<path fill="#7C7C7C" d="M144.107,151.608c0,0,0.948-0.092,0.959-1.031c0,0,0.142-0.934-0.855-1.176c0,0-0.811-0.039-1.122,0.338
	c0,0-0.539,0.396-1.266-0.061c0,0-0.867-0.92-1.69-0.016c0,0-0.79,0.873,0.184,1.604c0,0,0.759,0.458,1.338-0.1
	c0,0,0.959-0.344,1.393,0.131C143.048,151.297,143.666,151.752,144.107,151.608z"/>
<path fill="#7C7C7C" d="M137.546,151.107c0,0,0.948-0.092,0.96-1.031c0,0,0.141-0.933-0.856-1.176c0,0-0.811-0.038-1.122,0.338
	c0,0-0.539,0.396-1.266-0.061c0,0-0.867-0.919-1.69-0.015c0,0-0.789,0.873,0.184,1.602c0,0,0.759,0.459,1.338-0.098
	c0,0,0.959-0.346,1.392,0.13C136.488,150.796,137.105,151.252,137.546,151.107z"/>
<path fill="#7C7C7C" d="M131.29,150.799c0,0,0.948-0.091,0.959-1.029c0,0,0.142-0.935-0.855-1.176c0,0-0.811-0.039-1.122,0.336
	c0,0-0.539,0.398-1.266-0.06c0,0-0.866-0.92-1.69-0.015c0,0-0.789,0.873,0.184,1.602c0,0,0.759,0.459,1.338-0.099
	c0,0,0.959-0.345,1.393,0.131C130.231,150.49,130.848,150.945,131.29,150.799z"/>
<path fill="#7C7C7C" d="M124.769,150.424c0,0,0.948-0.092,0.959-1.031c0,0,0.142-0.934-0.855-1.176c0,0-0.811-0.038-1.122,0.338
	c0,0-0.539,0.396-1.266-0.061c0,0-0.866-0.919-1.69-0.016c0,0-0.79,0.875,0.184,1.604c0,0,0.759,0.458,1.339-0.1
	c0,0,0.959-0.344,1.392,0.131C123.71,150.114,124.328,150.569,124.769,150.424z"/>
<path fill="#7C7C7C" d="M118.898,149.969c0,0,0.941-0.146,0.898-1.086c0,0,0.087-0.939-0.922-1.123c0,0-0.812,0.008-1.1,0.401
	c0,0-0.516,0.427-1.268,0.013c0,0-0.918-0.867-1.688,0.082c0,0-0.738,0.918,0.276,1.59c0,0,0.784,0.414,1.331-0.178
	c0,0,0.938-0.398,1.397,0.052C117.823,149.72,118.466,150.139,118.898,149.969z"/>
<path fill="#7C7C7C" d="M113.404,150.794c0,0,0.702-0.644,0.146-1.401c0,0-0.449-0.83-1.391-0.424c0,0-0.671,0.457-0.693,0.945
	c0,0-0.192,0.64-1.048,0.711c0,0-1.245-0.212-1.359,1.006c0,0-0.105,1.172,1.111,1.17c0,0,0.882-0.091,1.009-0.885
	c0,0,0.559-0.853,1.191-0.732C112.372,151.184,113.139,151.176,113.404,150.794z"/>
<path fill="#7C7C7C" d="M108.996,154.243c0,0,0.299-0.904-0.556-1.295c0,0-0.797-0.505-1.421,0.309c0,0-0.362,0.728-0.144,1.163
	c0,0,0.146,0.653-0.565,1.134c0,0-1.191,0.423-0.696,1.541c0,0,0.481,1.074,1.541,0.479c0,0,0.726-0.51,0.449-1.266
	c0,0,0.072-1.017,0.681-1.221C108.285,155.086,108.951,154.706,108.996,154.243z"/>
<path fill="#7C7C7C" d="M106.888,165.555c0,0-0.49-0.818-1.344-0.425c0,0-0.903,0.272-0.694,1.276c0,0,0.313,0.75,0.786,0.869
	c0,0,0.589,0.316,0.489,1.169c0,0-0.458,1.179,0.712,1.532c0,0,1.127,0.339,1.369-0.854c0,0,0.087-0.883-0.665-1.166
	c0,0-0.723-0.719-0.479-1.313C107.062,166.644,107.208,165.891,106.888,165.555z"/>
<path fill="#7C7C7C" d="M106.767,159.647c0,0-0.099-0.947-1.039-0.951c0,0-0.935-0.135-1.168,0.865c0,0-0.033,0.811,0.346,1.118
	c0,0,0.4,0.536-0.05,1.267c0,0-0.913,0.874-0.002,1.689c0,0,0.88,0.783,1.602-0.195c0,0,0.452-0.764-0.11-1.338
	c0,0-0.352-0.957,0.12-1.395C106.465,160.708,106.915,160.087,106.767,159.647z"/>
<path fill="#7C7C7C" d="M109.805,170c0,0-0.906-0.295-1.292,0.562c0,0-0.502,0.799,0.314,1.419c0,0,0.728,0.36,1.163,0.139
	c0,0,0.653-0.146,1.136,0.562c0,0,0.427,1.188,1.543,0.688c0,0,1.073-0.484,0.472-1.543c0,0-0.512-0.723-1.267-0.443
	c0,0-1.017-0.067-1.224-0.676C110.65,170.708,110.267,170.043,109.805,170z"/>
<path fill="#7C7C7C" d="M115.184,171.917c0,0-0.952,0.024-1.03,0.961c0,0-0.208,0.921,0.77,1.232c0,0,0.807,0.097,1.143-0.257
	c0,0,0.566-0.357,1.258,0.149c0,0,0.799,0.979,1.685,0.135c0,0,0.85-0.814-0.07-1.611c0,0-0.725-0.511-1.342,0.004
	c0,0-0.981,0.276-1.379-0.229C116.218,172.301,115.634,171.803,115.184,171.917z"/>
<path fill="#7C7C7C" d="M121.348,172.321c0,0-0.947-0.109-1.154,0.809c0,0-0.333,0.882,0.591,1.328c0,0,0.785,0.206,1.167-0.097
	c0,0,0.61-0.275,1.225,0.323c0,0,0.656,1.08,1.649,0.367c0,0,0.955-0.689,0.155-1.605c0,0-0.646-0.606-1.33-0.182
	c0,0-1.01,0.137-1.334-0.42C122.317,172.844,121.809,172.271,121.348,172.321z"/>
<path fill="#7C7C7C" d="M127.457,175.765c0,0-0.354-0.884-1.259-0.632c0,0-0.936,0.126-0.888,1.15c0,0,0.19,0.79,0.639,0.982
	c0,0,0.532,0.406,0.297,1.231c0,0-0.64,1.091,0.459,1.627c0,0,1.06,0.513,1.487-0.626c0,0,0.227-0.857-0.471-1.258
	c0,0-0.6-0.824-0.265-1.373C127.456,176.868,127.719,176.148,127.457,175.765z"/>
<path fill="#7C7C7C" d="M127.556,182.444c0,0,0.06-0.951-0.866-1.111c0,0-0.899-0.287-1.296,0.66c0,0-0.167,0.794,0.156,1.16
	c0,0,0.306,0.596-0.259,1.24c0,0-1.045,0.711-0.282,1.666c0,0,0.737,0.918,1.611,0.072c0,0,0.573-0.677,0.113-1.338
	c0,0-0.188-1.002,0.35-1.354C127.083,183.44,127.63,182.903,127.556,182.444z"/>
<path fill="#7C7C7C" d="M126.14,188.487c0,0,0.06-0.95-0.866-1.111c0,0-0.899-0.287-1.296,0.66c0,0-0.167,0.795,0.156,1.16
	c0,0,0.306,0.596-0.26,1.24c0,0-1.045,0.711-0.282,1.667c0,0,0.738,0.918,1.612,0.071c0,0,0.572-0.676,0.113-1.338
	c0,0-0.188-1.001,0.35-1.354C125.667,189.483,126.213,188.946,126.14,188.487z"/>
<path fill="#7C7C7C" d="M124.715,194.331c0,0-0.012-0.951-0.947-1.043c0,0-0.918-0.219-1.243,0.755c0,0-0.106,0.805,0.243,1.146
	c0,0,0.35,0.57-0.166,1.256c0,0-0.989,0.787-0.157,1.684c0,0,0.804,0.86,1.613-0.049c0,0,0.52-0.718,0.013-1.342
	c0,0-0.263-0.985,0.247-1.377C124.317,195.36,124.822,194.783,124.715,194.331z"/>
<path fill="#7C7C7C" d="M125.756,203.414c0,0,0.828,0.47,1.377-0.293c0,0,0.652-0.683-0.026-1.453c0,0-0.642-0.497-1.112-0.368
	c0,0-0.669,0.016-1.001-0.775c0,0-0.182-1.25-1.375-0.982c0,0-1.148,0.261-0.77,1.416c0,0,0.358,0.812,1.153,0.688
	c0,0,0.983,0.269,1.065,0.906C125.067,202.552,125.311,203.28,125.756,203.414z"/>
<path fill="#7C7C7C" d="M132.337,204.241c0,0,0.951-0.06,0.994-0.999c0,0,0.172-0.927-0.816-1.202c0,0-0.809-0.066-1.132,0.299
	c0,0-0.553,0.379-1.263-0.103c0,0-0.836-0.948-1.689-0.07c0,0-0.819,0.847,0.13,1.607c0,0,0.744,0.483,1.341-0.056
	c0,0,0.97-0.312,1.387,0.178C131.29,203.895,131.892,204.371,132.337,204.241z"/>
<path fill="#7C7C7C" d="M138.381,204.629c0,0,0.95-0.059,0.993-0.998c0,0,0.173-0.928-0.816-1.203c0,0-0.81-0.065-1.132,0.301
	c0,0-0.552,0.378-1.263-0.104c0,0-0.836-0.947-1.689-0.07c0,0-0.818,0.846,0.13,1.607c0,0,0.743,0.483,1.341-0.055
	c0,0,0.97-0.312,1.387,0.178C137.333,204.286,137.935,204.76,138.381,204.629z"/>
<path fill="#7C7C7C" d="M144.44,204.72c0,0,0.948-0.093,0.958-1.032c0,0,0.14-0.934-0.857-1.174c0,0-0.811-0.038-1.121,0.339
	c0,0-0.539,0.396-1.266-0.06c0,0-0.868-0.918-1.69-0.014c0,0-0.789,0.875,0.186,1.604c0,0,0.76,0.457,1.338-0.102
	c0,0,0.959-0.346,1.393,0.13C143.381,204.412,143.999,204.866,144.44,204.72z"/>
<path fill="#7C7C7C" d="M150.313,204.867c0,0,0.948-0.093,0.958-1.032c0,0,0.141-0.934-0.857-1.175c0,0-0.811-0.038-1.121,0.339
	c0,0-0.54,0.396-1.266-0.059c0,0-0.868-0.918-1.69-0.014c0,0-0.789,0.875,0.186,1.604c0,0,0.76,0.457,1.338-0.102
	c0,0,0.959-0.346,1.392,0.129C149.253,204.557,149.872,205.012,150.313,204.867z"/>
<path fill="#7C7C7C" d="M156.234,205.061c0,0,0.948-0.092,0.959-1.031c0,0,0.14-0.934-0.857-1.175c0,0-0.811-0.038-1.121,0.339
	c0,0-0.539,0.397-1.266-0.059c0,0-0.868-0.919-1.69-0.014c0,0-0.789,0.875,0.186,1.603c0,0,0.76,0.458,1.339-0.102
	c0,0,0.959-0.345,1.393,0.13C155.175,204.752,155.793,205.208,156.234,205.061z"/>
<path fill="#7C7C7C" d="M162.222,204.995c0,0,0.946-0.106,0.942-1.046c0,0,0.125-0.937-0.876-1.161c0,0-0.812-0.024-1.115,0.357
	c0,0-0.533,0.404-1.266-0.04c0,0-0.883-0.904-1.691,0.014c0,0-0.775,0.887,0.211,1.599c0,0,0.767,0.446,1.337-0.121
	c0,0,0.954-0.361,1.394,0.107C161.158,204.704,161.783,205.149,162.222,204.995z"/>
<path fill="#7C7C7C" d="M168.192,205.19c0,0,0.946-0.107,0.942-1.047c0,0,0.125-0.936-0.875-1.161c0,0-0.812-0.024-1.115,0.357
	c0,0-0.533,0.405-1.267-0.04c0,0-0.883-0.904-1.69,0.014c0,0-0.775,0.887,0.211,1.6c0,0,0.767,0.445,1.336-0.122
	c0,0,0.954-0.36,1.395,0.107C167.128,204.898,167.753,205.342,168.192,205.19z"/>
<path fill="#7C7C7C" d="M150.291,151.909c0,0,0.948-0.092,0.96-1.031c0,0,0.142-0.933-0.856-1.175c0,0-0.811-0.04-1.121,0.338
	c0,0-0.54,0.396-1.266-0.061c0,0-0.867-0.92-1.69-0.016c0,0-0.789,0.874,0.184,1.603c0,0,0.759,0.458,1.338-0.1
	c0,0,0.959-0.344,1.393,0.131C149.232,151.598,149.85,152.054,150.291,151.909z"/>
<path fill="#7C7C7C" d="M194.725,202.976c0,0-0.942,0.136-0.91,1.075c0,0-0.098,0.939,0.91,1.135c0,0,0.812,0,1.104-0.391
	c0,0,0.52-0.422,1.267,0c0,0,0.91,0.878,1.689-0.064c0,0,0.747-0.91-0.26-1.592c0,0-0.78-0.424-1.332,0.162
	c0,0-0.942,0.39-1.397-0.065C195.797,203.236,195.159,202.811,194.725,202.976z"/>
<circle fill="#515151" cx="115.571" cy="163.891" r="2.404"/>
<circle fill="#7A7A7A" cx="115.051" cy="158.953" r="1.43"/>
<path fill="none" stroke="#D3D3D3" stroke-width="4" stroke-miterlimit="10" d="M102.965,183.374c0,0-5.848-1.287-7.862-4.407
	c0,0-3.314-2.534-2.469-8.577c0,0,0.187-4.159,5.097-7.732c0,0,1.791-2.08,7.444-2.73c0,0,6.693-0.584,15.855,3.314
	c0,0,16.472,5.475,17.252,5.516"/>
<path fill="#EFEFEF" d="M215.152,173.345c0,0-1.982-0.26-3.736,1.657c0,0-1.396,1.137-1.559,3.736c0,0-0.228,1.885,1.559,3.834
	c0,0,1.169,1.396,3.736,1.624c0,0,0.715-0.005,2.712-0.311c0,0,15.319-1.897,41.929,0.311c0,0,4.515-4.028,0-6.985
	c0,0-24.53,0.715-41.929-3.379C217.864,173.833,216.311,173.248,215.152,173.345z"/>
<path fill="#A0A0A0" d="M215.152,175.247c-1.929,0-3.493,1.562-3.493,3.492c0,1.929,1.563,3.492,3.493,3.492
	c1.929,0,3.493-1.563,3.493-3.492C218.645,176.809,217.081,175.247,215.152,175.247z M215.152,181.452
	c-1.498,0-2.713-1.215-2.713-2.713s1.215-2.713,2.713-2.713s2.712,1.215,2.712,2.713S216.65,181.452,215.152,181.452z"/>
<circle fill="#3D3D3D" cx="215.152" cy="178.739" r="2.713"/>
<path fill="#AAAAAA" d="M258.22,183.264l2.66-0.133c0,0,1.32-0.262,1.34-1.856l1.982-0.033c0,0,1.653-0.766,1.775-1.585
	c0,0,0.512-0.806-1.541-0.898c0,0-3.275-0.456-5.945-0.485c0,0-0.273-0.278-2.354-0.208c0,0-3.789-0.332-7.138,0.355
	c0,0-1.507,1.115,1.024,2.291l-0.143,2.35c0,0,1.051,0.858,1.133-0.772l4.736-0.269C255.751,182.02,256.17,183.268,258.22,183.264z
	 M255.788,180.815c-0.053-1.059,0.762-1.957,1.819-2.01c1.057-0.053,1.956,0.762,2.01,1.818c0.052,1.058-0.763,1.958-1.819,2.011
	C256.739,182.686,255.841,181.872,255.788,180.815z"/>
<circle fill="#3D3D3D" cx="257.725" cy="180.769" r="1.917"/>
<path fill="#282828" d="M131.588,201.254c0-0.098-1.852-5.199-1.852-5.199c-1.268-3.184-1.42-10.006-1.42-10.006
	c1.601-0.422,1.03-1.268,1.03-1.268c-0.91-1.104,0.033-1.754,0.033-1.754c1.722-0.357,1.689-1.95,1.689-1.95
	c0.391-3.541-3.15-4.286-3.15-4.286l-5.849,4.807c0.845,0.032,2.404,2.111,2.404,2.111c0.65,0.846,1.95,10.137,1.95,10.137
	l0.325,2.307c-0.422,0.391-0.877,1.625-0.877,1.625c-1.04,0.454-5.036,3.573-5.036,3.573c-0.877,0.52-0.163,1.202-0.163,1.202
	l1.397,1.658c0.975,0.941,1.202,0.648,1.202,0.648c3.639-0.129,7.278-1.267,7.278-1.267
	C132.141,202.619,131.588,201.254,131.588,201.254z M128.469,179.194c0,0,1.133-0.25,0.812,2.274l-0.965,0.618
	C128.317,182.086,128.145,179.811,128.469,179.194z M130.354,202.196c-0.163,0.325-2.827,0.976-2.827,0.976
	c-3.542,0.975-4.224-1.788-4.224-1.788c0.455-1.363,3.184-1.916,3.184-1.916c1.787,1.396,3.086,0.455,3.086,0.455
	C131.004,202.229,130.354,202.196,130.354,202.196z"/>
<path fill="#999999" d="M110.21,174.288c0,0,6.108-0.324,7.765-0.26c0,0,3.769-1.267,4.776,1.105c0,0,1.072,0.746,2.079,0.453
	c0,0,5.686,0.229,2.534,4.68c0,0-0.617,1.723-5.588,1.656c0,0,0.195-0.845-0.325-1.006c0,0-0.812,0.422-1.917-0.358l-1.56,3.151
	c0,0-1.007-0.877-2.404-0.455l-0.548-4.061c0,0-0.004-0.78-1.142-0.195c0,0-1.722,0.553-2.372-0.064
	C111.51,178.934,108.346,179.405,110.21,174.288z"/>
<path fill="#777777" d="M109.285,171.332c0,0-0.609-2.315,0.926-3.282c0,0,0.487-0.544,1.462-0.666c0,0,2.291-0.52,3.168,1.764
	c0,0,0.78,2.574-0.877,4.037c0,0-1.787,0.73-3.208,0.633c0,0-0.495-0.293-0.885,3.801h2.264c0,0,0.412,0.828,0,1.949
	c-0.412,1.121,0,0.195,0,0.195s-1.148,0.195,0,0.683c0,0,0.514,1.12-2.069,0.975c0,0-0.181,2.924-0.822,3.362h-2.443
	c0,0-0.39-1.852,0-2.096c0,0,1.413,0.195,1.364-0.975c0,0,0-1.998-0.341-3.411C107.822,178.3,107.14,177.715,109.285,171.332z"/>
<circle fill="#282828" cx="111.867" cy="170.065" r="2.014"/>
<circle cx="111.867" cy="170.065" r="0.918"/>
<circle fill="#7C7C7C" cx="128.316" cy="198.004" r="0.9"/>
<path fill="#777777" d="M115.571,184.294c0,0,0.682,2.21,2.014,0.487l0.39-1.072c0,0-1.04-0.909-2.404-0.455V184.294z"/>
<ellipse fill="#282828" cx="116.627" cy="185.055" rx="0.658" ry="0.379"/>
<path fill="#282828" d="M102.9,182.223c0,0-0.512,0.928,0,2.061c0,0,1.505,0.824,3.92,0.393c0,0-0.339-1.868-0.021-1.99
	C106.799,182.686,105.288,181.395,102.9,182.223z"/>
<path fill="#7F7F7F" d="M137.948,167.937c0,0-0.389,0.343,0,1.476c0,0,0.507,0.457,2.533,0.783c0,0,0.666-0.521,0.427-1.601
	C140.908,168.595,139.955,167.883,137.948,167.937z"/>
<polygon fill="#EFEFEF" points="118.28,151.217 122.037,145.28 126.113,146.016 121.667,152.793 "/>
<path fill="none" stroke="#D3D3D3" stroke-width="4" stroke-miterlimit="10" d="M356.611,45.109c0,0,5.463,16.375-16.812,24.464
	c0,0-25.547,3.364-32.292,10.503"/>
<path fill="#7F7F7F" d="M304.638,80.826l1.588-1.606c0,0,0.907-0.675,1.814,1.865l-1.542,1.965
	C306.498,83.049,304.547,82.588,304.638,80.826z"/>
<path fill="#AA7535" d="M330.1,33.169c2.216,1.846,11.355,2.778,11.355,2.778c3.118,0.292,7.358,4.289,7.358,4.289
	c1.219,0.877,0.829,3.947,0.829,3.947c-2.192,4.776-15.205,14.036-15.205,14.036c-0.585,0.341-6.726,2.291-6.726,2.291
	c-3.898-0.926-7.164,1.657-7.164,1.657c-1.023,5.117,1.998,6.48,1.998,6.48c1.365,0.439,4.094-0.877,4.094-0.877
	c8.432-1.364,12.622-4.094,12.622-4.094c1.22-0.34,2.778-2.339,2.778-2.339l9.162-6.481c1.79-1.5,3.492-3.444,3.492-3.444
	c1.949-2.014,3.055-8.967,3.055-8.967l0.064-3.054c0.455-1.819,3.639-4.549,3.639-4.549l-0.064-0.779l0.455,0.407l-2.015-13.663
	c-2.339,6.498-16.375,6.628-16.375,6.628l-0.649,1.04l-1.819-0.39l-3.898-0.91c-4.257-3.314-7.732-0.715-7.732-0.715
	S326.298,30.001,330.1,33.169z"/>
<path fill="#353535" d="M357.813,39.391c0.455-1.819,3.639-4.549,3.639-4.549l-0.064-0.779l0.455,0.407l1.818-0.797
	c3.444-0.585,3.51,2.469,3.51,2.469s0.129,1.365,0.064,3.769s0.143,4.034,1.43,6.498c1.436,2.749,2.08,3.379,2.08,3.379
	c0.621,0.68,7.668,5.069,7.668,5.069c1.689-1.04,0-2.469,0-2.469c-7.799-5.134-5.068-14.166-5.068-14.166
	c0.129-4.419-2.471-8.057-2.471-8.057c-2.598-3.769,0.131-5.329,0.131-5.329c2.729-3.249,0-6.628,0-6.628v-0.39
	c-3.379-5.068-6.889-3.509-6.889-3.509c-4.418,1.56-4.288,6.498-4.288,6.498c-2.339,6.498-16.375,6.628-16.375,6.628l-0.649,1.04
	c0,0-0.054,0.92,2.145,3.184c3.119,2.145,5.191,5.187,6.503,5.622C353.525,37.442,357.813,39.391,357.813,39.391z"/>
<path fill="#AA7535" d="M133.896,1.573c0,0,0.91-0.195,2.989-0.91c0,0,2.989-1.299,13.45-0.26c0,0,11.566,0.975,15.335,0.715
	c0,0,8.593-0.13,13.191-0.845c0,0,9.308-0.273,12.735,0.845c0,0,4.874,0.585,7.212,5.328c0,0,0.585,2.079-1.299,2.145
	c0,0-6.791,1.04-11.534,0.195c0,0-1.754-1.559-10.591,0.521c0,0-5.471,0.771-13.327,4.219c0,0-6.231,3.35-11.495,2.311
	c0,0-3.931-1.169-8.935-3.866c0,0-2.599-1.397-6.53-2.631c0,0-3.217-0.52-3.606-2.794C131.491,6.544,130.874,3.912,133.896,1.573z"
	/>
</svg>
